<svg xmlns="http://www.w3.org/2000/svg"  viewBox="0 0 64 64" width="512px" height="512px"><radialGradient id="Z1zXEVnHIZPXtCfkT3ST0a" cx="31.5" cy="-2481.5" r="31.004" gradientTransform="matrix(1.0159 0 0 -1.0328 0 -2530.36)" gradientUnits="userSpaceOnUse"><stop offset="0" stop-color="#afeeff"/><stop offset=".193" stop-color="#bbf1ff"/><stop offset=".703" stop-color="#d7f8ff"/><stop offset="1" stop-color="#e1faff"/></radialGradient><path fill="url(#Z1zXEVnHIZPXtCfkT3ST0a)" d="M59.937,26.82c2.372,0,4.287-2.094,4.042-4.555c-0.213-2.143-2.115-3.708-4.234-3.708H49	c-1.012,0-1.95-0.703-2.113-1.719c-0.206-1.294,0.77-2.413,2.004-2.413h10.392c1.329,0,2.54-0.972,2.672-2.316	c0.152-1.546-1.037-2.848-2.526-2.848h-8.222c-0.841,0-1.524-0.694-1.524-1.549s0.683-1.549,1.524-1.549h1.109	c1.329,0,2.539-0.972,2.672-2.316C55.139,2.302,53.95,1,52.46,1H14.876c-1.329,0-2.539,0.972-2.672,2.316	c-0.152,1.546,1.037,2.848,2.526,2.848h14.129c1.012,0,1.95,0.703,2.113,1.719c0.206,1.294-0.77,2.413-2.004,2.413H5.271	c-2.119,0-4.021,1.564-4.234,3.708c-0.245,2.46,1.67,4.555,4.042,4.555h0.307c1.925,0,3.651,1.466,3.752,3.421	c0.108,2.084-1.524,3.809-3.55,3.809H4.256c-2.119,0-4.021,1.564-4.234,3.708c-0.245,2.46,1.67,4.555,4.042,4.555h10.159	l7.111,11.361H5.214c-1.474,0-2.833,1.004-3.12,2.474c-0.386,1.975,1.108,3.723,2.985,3.723h7.112c1.123,0,2.032,0.924,2.032,2.066	l0,0c0,1.141-0.909,2.066-2.032,2.066H9.335c-2.119,0-4.021,1.564-4.234,3.708C4.856,61.906,6.771,64,9.143,64h41.459	c2.119,0,4.021-1.564,4.234-3.708c0.245-2.46-1.67-4.555-4.042-4.555c0,0,0,0-0.001,0H38c-1.012,0-1.95-0.703-2.113-1.719	c-0.205-1.294,0.771-2.413,2.005-2.413h21.421c1.697,0,3.246-1.159,3.593-2.847c0.476-2.32-1.275-4.382-3.477-4.382h-8.998	c-1.329,0-2.539-0.972-2.672-2.316c-0.152-1.546,1.037-2.848,2.526-2.848h10.534c1.474,0,2.833-1.004,3.12-2.474	c0.385-1.975-1.109-3.723-2.987-3.723h-7.111V26.82H59.937z"/><linearGradient id="Z1zXEVnHIZPXtCfkT3ST0b" x1="49.981" x2="49.981" y1="9" y2="39.016" gradientUnits="userSpaceOnUse"><stop offset="0" stop-color="#7c9eea"/><stop offset=".277" stop-color="#798ce6"/><stop offset=".737" stop-color="#7780e3"/><stop offset="1" stop-color="#7363dc"/></linearGradient><path fill="url(#Z1zXEVnHIZPXtCfkT3ST0b)" d="M59,30.236c-3.523,11.769-9.347,8.6-10.234,7.756c0,0,2.481-3.872,2.481-8.05	c0-4.178-1.993-8.536-5.091-11.666c-3.086-3.131-6.879-5.571-4.384-8.191c2.031-2.108,5.953-1.508,11.52,5.073	C59,21.879,59,28.677,59,30.236z"/><linearGradient id="Z1zXEVnHIZPXtCfkT3ST0c" x1="48.991" x2="48.991" y1="30.236" y2="48.228" gradientUnits="userSpaceOnUse"><stop offset="0" stop-color="#7363dc"/><stop offset="1" stop-color="#f3487f"/></linearGradient><path fill="url(#Z1zXEVnHIZPXtCfkT3ST0c)" d="M59,30.236c0,9.021-5.22,17.992-10.851,17.992c-4.127,0-7.11-2.16-9.167-7.015	c0.18-0.805,0.36-1.648,0.694-2.671c0.103-0.319,0.219-0.652,0.347-1.01c0.103-0.281,0.219-0.575,0.347-0.869	c0.064-0.153,0.141-0.307,0.206-0.473c0.154-0.319,0.309-0.652,0.476-0.997c0.18-0.358,0.347-0.69,0.527-1.01	c0.18-0.307,0.36-0.601,0.54-0.869c0.064-0.089,0.116-0.179,0.18-0.256c0.116-0.166,0.244-0.319,0.373-0.46	c0.193-0.204,0.386-0.371,0.579-0.498c0.064-0.051,0.141-0.089,0.206-0.115c0.27-0.141,0.54-0.192,0.823-0.128	c0.154,0.026,0.309,0.077,0.463,0.166c0.077,0.038,0.141,0.089,0.219,0.153c0.077,0.064,0.167,0.128,0.244,0.204	c0.077,0.077,0.154,0.166,0.231,0.256c0.077,0.089,0.154,0.192,0.231,0.307c0.09,0.102,0.167,0.217,0.244,0.345v0.013	c0.707,1.61,1.363,3.246,2.854,4.69C49.653,38.836,55.477,42.005,59,30.236z"/><linearGradient id="Z1zXEVnHIZPXtCfkT3ST0d" x1="14.116" x2="14.116" y1="44.736" y2="9.063" gradientUnits="userSpaceOnUse"><stop offset="0" stop-color="#fca853"/><stop offset=".612" stop-color="#fdcb49"/><stop offset="1" stop-color="#fddc44"/></linearGradient><path fill="url(#Z1zXEVnHIZPXtCfkT3ST0d)" d="M21.29,42.184c0.116,0.422,0.244,0.831,0.399,1.227c-0.064,0.038-0.116,0.064-0.18,0.089	c-3.651,1.521-10.273,2.722-15.441-3.297c0,0-0.266-0.836-0.347-1.137c-0.077-0.294-0.154-0.588-0.219-0.894	c-0.064-0.268-0.116-0.537-0.167-0.818c-0.077-0.396-0.141-0.805-0.193-1.201c-0.013-0.166-0.039-0.319-0.051-0.486	c-0.013-0.141-0.026-0.268-0.026-0.422c-0.026-0.179-0.039-0.371-0.039-0.562C5.013,34.376,5,34.069,5,33.763	c0-13.57,8.55-24.764,14.271-24.7c1.607,0.026,2.893,1.061,3.574,2.786c0.849,2.172,0.296,8.37-1.607,15.73l-0.231,0.997	c-1.003,4.817-0.399,9.635,0.283,13.583C21.29,42.171,21.29,42.171,21.29,42.184z"/><linearGradient id="Z1zXEVnHIZPXtCfkT3ST0e" x1="20.461" x2="20.461" y1="55" y2="40.203" gradientUnits="userSpaceOnUse"><stop offset="0" stop-color="#fd6b53"/><stop offset=".007" stop-color="#fd6b53"/><stop offset="1" stop-color="#fca853"/></linearGradient><path fill="url(#Z1zXEVnHIZPXtCfkT3ST0e)" d="M34.854,49.518c-0.025,0.045-0.087,0.138-0.111,0.168c-0.218,0.276-0.429,0.551-0.66,0.815	c-0.334,0.383-0.681,0.754-1.041,1.112c-0.501,0.486-1.041,0.946-1.607,1.354c-0.951,0.69-1.98,1.24-3.111,1.584	c-0.219,0.077-0.45,0.141-0.681,0.192C26.947,54.911,26.214,55,25.456,55c-0.296,0-0.591-0.013-0.887-0.026	c-0.193-0.013-0.373-0.026-0.566-0.051c-0.167-0.013-0.321-0.026-0.489-0.051c-0.154-0.013-0.296-0.038-0.45-0.064	c-0.18-0.026-0.347-0.051-0.527-0.089c-0.244-0.038-0.489-0.089-0.733-0.153c-0.193-0.038-0.386-0.089-0.579-0.141	c-0.103-0.026-0.219-0.064-0.334-0.089c-0.219-0.064-0.437-0.128-0.656-0.204c-0.939-0.307-1.89-0.69-2.803-1.15	c-0.231-0.102-0.45-0.217-0.669-0.345c-0.154-0.077-0.309-0.166-0.45-0.243c-0.18-0.102-0.373-0.217-0.553-0.332	c-0.656-0.396-1.299-0.831-1.916-1.303c-0.283-0.204-0.553-0.422-0.823-0.652c-0.116-0.077-0.219-0.179-0.321-0.268	c-0.064-0.051-0.129-0.102-0.18-0.166c-0.283-0.23-0.553-0.485-0.823-0.741c-0.36-0.345-1.054-1.073-1.054-1.086	c-0.192-0.208-0.384-0.42-0.569-0.639c-0.1-0.118-0.472-0.588-0.497-0.619c-0.149-0.188-0.481-0.633-0.719-0.967	c-0.127-0.178-0.436-0.638-0.52-0.768c-0.11-0.167-0.433-0.688-0.484-0.777c-0.219-0.383-0.437-0.78-0.643-1.188	c-0.373-0.805-1.119-2.619-1.144-2.683c5.146,5.992,11.731,4.828,15.393,3.317c0.016-0.007,0.229-0.11,0.229-0.11	s0.019,0.056,0.022,0.064C25.108,53.145,31.951,51.931,34.854,49.518z"/><linearGradient id="Z1zXEVnHIZPXtCfkT3ST0f" x1="33.8" x2="33.8" y1="51.22" y2="28.189" gradientUnits="userSpaceOnUse"><stop offset="0" stop-color="#ff634d"/><stop offset=".204" stop-color="#fe6464"/><stop offset=".521" stop-color="#fc6581"/><stop offset=".794" stop-color="#fa6694"/><stop offset=".989" stop-color="#fa669a"/><stop offset="1" stop-color="#fa669a"/></linearGradient><path fill="url(#Z1zXEVnHIZPXtCfkT3ST0f)" d="M45.911,33.29c-0.077-0.128-0.154-0.243-0.244-0.345c-0.077-0.115-0.154-0.217-0.231-0.307	c-0.077-0.089-0.154-0.179-0.231-0.256c-0.077-0.077-0.154-0.153-0.244-0.204c-0.077-0.064-0.141-0.115-0.219-0.153	c-0.154-0.089-0.309-0.141-0.463-0.166c-0.283-0.064-0.553-0.013-0.823,0.128c-0.064,0.026-0.141,0.064-0.206,0.115	c-0.193,0.128-0.386,0.294-0.579,0.498c-0.129,0.141-0.257,0.294-0.373,0.46c-0.064,0.077-0.116,0.166-0.18,0.256	c-0.193,0.268-0.373,0.562-0.54,0.869c-0.18,0.319-0.347,0.652-0.527,1.01c-0.18,0.345-0.334,0.677-0.476,0.997	c-0.064,0.166-0.141,0.319-0.206,0.473c-0.129,0.294-0.244,0.588-0.347,0.869c-0.141,0.358-0.257,0.69-0.347,1.01	c-0.334,1.022-0.514,1.866-0.694,2.671c-0.407,1.708-1.76,5.182-4.045,8.203c-0.023,0.03-0.082,0.103-0.082,0.103	c-2.906,2.415-9.759,3.629-13.153-6.07c0-0.013-0.013-0.026-0.013-0.038c3.69-1.712,10.234-11.13,14.014-13.685	c3.086-2.083,6.493-2.083,8.319,0.217C44.626,30.696,45.153,31.412,45.911,33.29z"/></svg>